<svg
width="22"
height="22"
viewBox="0 0 22 22"
fill="none"
xmlns="http://www.w3.org/2000/svg"
>
<path
d="M15 21.027V18.157C15.0375 17.6801 14.9731 17.2008 14.811 16.7508C14.6489 16.3008 14.3929 15.8904 14.06 15.547C17.2 15.197 20.5 14.007 20.5 8.54698C20.4997 7.1508 19.9627 5.80817 19 4.79698C19.4559 3.57548 19.4236 2.22533 18.91 1.02698C18.91 1.02698 17.73 0.676976 15 2.50698C12.708 1.8858 10.292 1.8858 8 2.50698C5.27 0.676976 4.09 1.02698 4.09 1.02698C3.57638 2.22533 3.54414 3.57548 4 4.79698C3.03013 5.81568 2.49252 7.17044 2.5 8.57698C2.5 13.997 5.8 15.187 8.94 15.577C8.611 15.9169 8.35726 16.3224 8.19531 16.7669C8.03335 17.2114 7.96681 17.685 8 18.157V21.027"
class='stroke'
stroke-width="1.5"
stroke-linecap="round"
stroke-linejoin="round"></path>
<path
d="M8 19.027C5 20 2.5 19.027 1 16.027"
class='stroke'
stroke-width="1.5"
stroke-linecap="round"
stroke-linejoin="round"></path>
</svg>